<?xml version="1.0" encoding="utf-8" ?>
<svg xmlns="http://www.w3.org/2000/svg" xmlns:xlink="http://www.w3.org/1999/xlink" width="28" height="32.332" viewBox="0 0 28 32.332">
	<defs>
		<clipPath id="clipPath1421984269">
			<path transform="matrix(1 0 0 1 0 0)" d="M0 0L28 0L28 32.3327L0 32.3327L0 0Z" fill-rule="nonzero"/>
		</clipPath>
	</defs>
	<g clip-path="url(#clipPath1421984269)">
		<path transform="matrix(1 0 0 1 0 0)" d="M23.9476 18.1099C23.4627 18.5751 22.8069 18.861 22.0839 18.861C20.5957 18.861 19.3906 17.6559 19.3906 16.1678C19.3906 14.6796 20.5957 13.4745 22.0839 13.4745C22.8069 13.4745 23.4627 13.7604 23.9476 14.2256L28.0028 8.08528L20.6574 8.52527C20.8171 9.17546 20.7387 9.8873 20.3771 10.5151C19.6345 11.8042 17.9866 12.2442 16.6974 11.5016C15.4083 10.7561 14.9683 9.111 15.7109 7.82184C16.0725 7.19408 16.6498 6.77089 17.2944 6.58313L14.0014 0L10.7112 6.58032C11.3558 6.76809 11.9303 7.19127 12.2947 7.81904C13.0373 9.1082 12.5973 10.7561 11.3082 11.4987C10.019 12.2414 8.37113 11.8014 7.62847 10.5123C7.26694 9.8845 7.18847 9.17546 7.34821 8.52247L0 8.08247L4.05525 14.2228C4.54009 13.7576 5.19588 13.4717 5.91893 13.4717C7.40707 13.4717 8.61215 14.6768 8.61215 16.1649C8.61215 17.6531 7.40707 18.8582 5.91893 18.8582C5.19588 18.8582 4.54009 18.5723 4.05525 18.1071L0 24.2502L7.34541 23.8102C7.18567 23.16 7.26414 22.4482 7.62566 21.8204C8.36833 20.5313 10.0162 20.0913 11.3054 20.834C12.5945 21.5794 13.0345 23.2245 12.2919 24.5137C11.9303 25.1414 11.353 25.5646 10.7084 25.7524L13.9986 32.3327L17.2888 25.7524C16.6442 25.5646 16.0697 25.1414 15.7053 24.5137C14.9627 23.2245 15.4027 21.5766 16.6918 20.834C17.981 20.0913 19.6289 20.5313 20.3715 21.8204C20.7331 22.4482 20.8115 23.1572 20.6518 23.8102L27.9972 24.2502L23.9419 18.1099L23.9476 18.1099ZM14.0014 18.861C12.5133 18.861 11.3082 17.6559 11.3082 16.1678C11.3082 14.6796 12.5133 13.4745 14.0014 13.4745C15.4895 13.4745 16.6946 14.6796 16.6946 16.1678C16.6946 17.6559 15.4895 18.861 14.0014 18.861Z" fill-rule="nonzero" fill="rgb(7, 106, 255)"/>
	</g>
</svg>
