<?xml version="1.0" encoding="utf-8" ?>
<svg xmlns="http://www.w3.org/2000/svg" xmlns:xlink="http://www.w3.org/1999/xlink" width="28" height="24.25" viewBox="0 0 28 24.25">
	<path transform="matrix(1 0 0 1 5.83412 0)" d="M5.99505 2.73762L10.3342 2.73762L13.401 8.0495L13.0371 8.67822L11.8366 10.7549L10.2574 13.4926L11.7451 16.0693L9.93564 16.0693L11.5149 18.8069L14.1139 18.8069C14.604 18.8069 15.0545 18.547 15.2995 18.1238C15.5446 17.7005 15.5446 17.1782 15.2995 16.7549L13.4183 13.495L13.8391 12.7648L14.9802 10.7871L16.5594 8.0495L11.9158 0L4.41584 0L0 7.64851L3.16089 7.64851L5.99505 2.73762Z" fill-rule="nonzero" fill="rgb(7, 106, 255)"/>
	<path transform="matrix(1 0 0 1 6.68003 10.104)" d="M16.9041 0.00247578L15.3249 2.7401L18.159 7.65099L15.9882 11.4084L9.85458 11.4084L8.2927 8.70049L6.71349 5.96287L3.73824 5.96287L4.64418 4.39604L1.48329 4.39604L0.183787 6.64851C-0.0612622 7.07178 -0.0612622 7.59406 0.183787 8.01733C0.428837 8.44059 0.879332 8.70049 1.36943 8.70049L5.13428 8.70049L5.91894 10.0594L8.27785 14.1436L17.5699 14.1436L21.3199 7.64851L16.9041 0L16.9041 0.00247578Z" fill-rule="nonzero" fill="rgb(7, 106, 255)"/>
	<path transform="matrix(1 0 0 1 0 5.75978)" d="M5.32921 15.7525L3.15842 11.995L6.22525 6.68317L7.79455 6.68317L12.5099 6.68317L13.9975 4.10644L14.9035 5.67327L16.4827 2.93564L15.1832 0.683168C14.9381 0.259901 14.4876 0 13.9975 0C13.5074 0 13.0569 0.259901 12.8119 0.683168L10.9307 3.94307L4.64357 3.94307L4.25 4.62624L4.25 4.63119L0 11.9926L3.75 18.4876L12.5817 18.4876L11.0025 15.75L5.33168 15.75L5.32921 15.7525Z" fill-rule="nonzero" fill="rgb(7, 106, 255)"/>
</svg>
